<svg width="770.201" height="72.401" viewBox="0 0 770.201 72.401" xmlns="http://www.w3.org/2000/svg"><g id="svgGroup" stroke-linecap="round" fill-rule="evenodd" font-size="9pt" stroke="#000" stroke-width="0.25mm" fill="#000" style="stroke:#000;stroke-width:0.25mm;fill:#000"><path d="M 483.201 71.2 L 474.201 71.2 L 474.201 1.2 L 486.801 1.2 L 517.701 59.4 L 517.701 1.2 L 526.701 1.2 L 526.701 71.2 L 514.301 71.2 L 483.201 13.4 L 483.201 71.2 Z M 53.201 5.7 L 49.701 13.6 Q 45.501 11.3 41.151 9.8 A 27.36 27.36 0 0 0 35.051 8.48 A 34.225 34.225 0 0 0 31.501 8.3 A 20.13 20.13 0 0 0 24.014 9.671 A 18.919 18.919 0 0 0 20.301 11.65 A 20.295 20.295 0 0 0 14.976 17.068 A 27.457 27.457 0 0 0 12.551 21.5 A 31.614 31.614 0 0 0 10.505 28.231 Q 9.902 31.363 9.751 34.955 A 58.311 58.311 0 0 0 9.701 37.4 Q 9.701 44.709 11.669 50.163 A 26.036 26.036 0 0 0 12.301 51.75 A 24.18 24.18 0 0 0 15.233 56.797 A 19.102 19.102 0 0 0 19.501 60.9 A 17.93 17.93 0 0 0 29.31 64.086 A 21.993 21.993 0 0 0 30.101 64.1 A 22.762 22.762 0 0 0 35.698 63.437 A 18.835 18.835 0 0 0 40.051 61.75 A 40.361 40.361 0 0 0 43.053 59.967 Q 45.338 58.463 46.901 56.9 L 46.901 41.6 L 32.401 41.6 L 32.401 34.1 L 55.901 34.1 L 55.901 71.2 L 47.501 71.2 L 47.501 64.2 A 35.883 35.883 0 0 1 43.122 67.492 A 47.354 47.354 0 0 1 39.001 69.85 A 23.594 23.594 0 0 1 29.594 72.35 A 28.131 28.131 0 0 1 27.901 72.4 A 26.572 26.572 0 0 1 18.588 70.8 A 24.511 24.511 0 0 1 13.501 68.2 Q 7.201 64 3.601 56.25 A 37.529 37.529 0 0 1 0.693 46.68 A 51.837 51.837 0 0 1 0.001 38 A 56.301 56.301 0 0 1 0.836 28.083 A 42.572 42.572 0 0 1 3.801 18.25 A 32.73 32.73 0 0 1 9.585 9.302 A 29.455 29.455 0 0 1 14.751 4.85 Q 21.901 0 32.001 0 Q 38.501 0 43.601 1.6 Q 48.701 3.2 53.201 5.7 Z M 80.901 71.2 L 71.401 71.2 L 71.401 1.2 L 80.901 1.2 L 80.901 31.1 L 115.401 31.1 L 115.401 1.2 L 124.901 1.2 L 124.901 71.2 L 115.401 71.2 L 115.401 39.3 L 80.901 39.3 L 80.901 71.2 Z M 301.201 71.2 L 291.701 71.2 L 291.701 1.2 L 301.201 1.2 L 301.201 31.1 L 335.701 31.1 L 335.701 1.2 L 345.201 1.2 L 345.201 71.2 L 335.701 71.2 L 335.701 39.3 L 301.201 39.3 L 301.201 71.2 Z M 586.701 71.2 L 544.701 71.2 L 544.701 1.2 L 586.701 1.2 L 586.701 9.4 L 554.201 9.4 L 554.201 30.7 L 582.201 30.7 L 582.201 38.7 L 554.201 38.7 L 554.201 63 L 586.701 63 L 586.701 71.2 Z M 716.701 68.2 L 707.801 72.4 L 699.101 53.4 A 30.586 30.586 0 0 0 696.509 48.827 Q 694.004 45.222 690.801 43.3 Q 686.445 40.687 679.965 40.35 A 37.847 37.847 0 0 0 678.001 40.3 L 676.501 40.3 L 676.501 71.2 L 667.001 71.2 L 667.001 1.4 Q 672.301 0.9 677.151 0.65 A 187.94 187.94 0 0 1 683.467 0.435 A 226.267 226.267 0 0 1 687.501 0.4 Q 700.301 0.4 706.751 5.6 A 17.414 17.414 0 0 1 711.38 11.134 Q 713.201 14.644 713.201 19 A 19.88 19.88 0 0 1 712.55 24.22 A 14.672 14.672 0 0 1 708.851 30.75 Q 704.501 35.2 696.301 37.4 A 23.656 23.656 0 0 1 699.729 39.263 A 20.427 20.427 0 0 1 701.101 40.25 Q 703.069 41.797 704.906 44.31 A 29.29 29.29 0 0 1 705.151 44.65 Q 707.101 47.4 709.101 51.8 L 716.701 68.2 Z M 402.701 71.2 L 393.201 71.2 L 393.201 1.2 L 434.701 1.2 L 434.701 9.4 L 402.701 9.4 L 402.701 30.8 L 429.401 30.8 L 429.401 38.6 L 402.701 38.6 L 402.701 71.2 Z M 199.701 68.7 L 191.001 72.2 L 183.201 52.2 L 150.801 52.2 L 143.001 72 L 134.901 68.7 L 162.301 1.2 L 172.701 1.2 L 199.701 68.7 Z M 657.001 68.7 L 648.301 72.2 L 640.501 52.2 L 608.101 52.2 L 600.301 72 L 592.201 68.7 L 619.601 1.2 L 630.001 1.2 L 657.001 68.7 Z M 260.201 71.2 L 250.701 71.2 L 250.701 9.6 L 229.201 9.6 L 229.201 1.2 L 281.701 1.2 L 281.701 9.6 L 260.201 9.6 L 260.201 71.2 Z M 748.701 71.2 L 739.201 71.2 L 739.201 9.6 L 717.701 9.6 L 717.701 1.2 L 770.201 1.2 L 770.201 9.6 L 748.701 9.6 L 748.701 71.2 Z M 219.201 71.2 L 209.701 71.2 L 209.701 1.2 L 219.201 1.2 L 219.201 71.2 Z M 456.201 71.2 L 446.701 71.2 L 446.701 1.2 L 456.201 1.2 L 456.201 71.2 Z M 167.001 10.6 L 153.801 44.2 L 180.101 44.2 L 167.001 10.6 Z M 624.301 10.6 L 611.101 44.2 L 637.401 44.2 L 624.301 10.6 Z M 676.501 8.8 L 676.501 32.3 L 687.501 32.3 A 26.489 26.489 0 0 0 692.424 31.869 Q 696.353 31.125 699.201 29.1 Q 703.701 25.9 703.701 19.9 A 9.811 9.811 0 0 0 700.427 12.436 A 13.272 13.272 0 0 0 699.501 11.65 A 13.923 13.923 0 0 0 695.137 9.429 Q 693.208 8.818 690.877 8.57 A 31.944 31.944 0 0 0 687.501 8.4 Q 684.326 8.4 681.762 8.487 A 118.974 118.974 0 0 0 681.401 8.5 Q 678.701 8.6 676.501 8.8 Z" vector-effect="non-scaling-stroke"/></g></svg>